<svg width="63" height="63" viewBox="0 0 63 63" fill="none" xmlns="http://www.w3.org/2000/svg">
<path d="M63 39.539C63.0029 37.3342 62.5404 35.1535 61.6429 33.1396L54.3532 16.7369C53.5261 14.8823 52.1798 13.3068 50.4768 12.2005C48.7738 11.0943 46.787 10.5047 44.7562 10.5029H36.75L34.7629 2.54953C34.5815 1.82146 34.1617 1.17497 33.5704 0.712973C32.9792 0.250971 32.2504 0 31.5 0C30.7496 0 30.0208 0.250971 29.4295 0.712973C28.8383 1.17497 28.4185 1.82146 28.2371 2.54953L26.25 10.5029H7.875C5.78642 10.5029 3.78338 11.3325 2.30653 12.8093C0.829685 14.286 0 16.289 0 18.3774L0 52.5006H5.35762C5.29008 52.9349 5.25411 53.3735 5.25 53.813C5.25 56.2495 6.21796 58.5863 7.94095 60.3092C9.66394 62.0321 12.0008 63 14.4375 63C16.8742 63 19.211 62.0321 20.934 60.3092C22.657 58.5863 23.625 56.2495 23.625 53.813C23.6209 53.3735 23.5849 52.9349 23.5174 52.5006H39.4826C39.4151 52.9349 39.3791 53.3735 39.375 53.813C39.375 56.2495 40.343 58.5863 42.0659 60.3092C43.7889 62.0321 46.1258 63 48.5625 63C50.9992 63 53.336 62.0321 55.059 60.3092C56.782 58.5863 57.75 56.2495 57.75 53.813C57.7459 53.3735 57.7099 52.9349 57.6424 52.5006H63V39.539ZM49.5547 18.8709L54.0015 28.8769H42V15.7526H44.7562C45.772 15.7524 46.766 16.047 47.6178 16.6005C48.4695 17.154 49.1423 17.9426 49.5547 18.8709V18.8709ZM18.375 53.813C18.375 54.8572 17.9602 55.8587 17.2217 56.5971C16.4833 57.3355 15.4818 57.7503 14.4375 57.7503C13.3932 57.7503 12.3917 57.3355 11.6533 56.5971C10.9148 55.8587 10.5 54.8572 10.5 53.813C10.5016 53.3644 10.5843 52.9198 10.7441 52.5006H18.1309C18.2907 52.9198 18.3734 53.3644 18.375 53.813ZM52.5 53.813C52.5 54.8572 52.0851 55.8587 51.3467 56.5971C50.6083 57.3355 49.6068 57.7503 48.5625 57.7503C47.5182 57.7503 46.5167 57.3355 45.7783 56.5971C45.0398 55.8587 44.625 54.8572 44.625 53.813C44.6266 53.3644 44.7093 52.9198 44.8691 52.5006H52.2559C52.4157 52.9198 52.4984 53.3644 52.5 53.813V53.813ZM57.75 47.2509H5.25V18.3774C5.25 17.6813 5.52656 17.0136 6.01884 16.5214C6.51113 16.0291 7.1788 15.7526 7.875 15.7526H36.75V34.1266H56.3351L56.8444 35.2736C57.4437 36.6156 57.7524 38.0693 57.75 39.539V47.2509ZM23.625 28.8769H28.875V34.1266H23.625V39.3763H18.375V34.1266H13.125V28.8769H18.375V23.6271H23.625V28.8769Z" fill="#0AA7AC"/>
</svg>
